#!OML:ASF F:\VICON\USERDATA\INSTALL\rory3\rory3.ASF
:FULLY-SPECIFIED
:DEGREES
741
root -0.0692532 18.2147 1.63253 -3.48723 -57.6921 -356.912
lowerback 11.9463 1.18796 -0.0673044
upperback 0.0710495 1.5859 0.459518
thorax -6.64905 0.77868 0.245666
lowerneck -21.6008 -5.68855 -12.7213
upperneck 29.19 -6.68205 8.5724
head 14.4099 -3.23245 4.38396
rclavicle 2.17669e-014 -1.59028e-015
rhumerus -34.7977 -7.98026 -82.5895
rradius 29.1929
rwrist 8.18809
rhand -14.3611 8.64677
rfingers 7.12502
rthumb 11.7809 -21.0019
lclavicle 2.17669e-014 -1.59028e-015
lhumerus -32.2325 2.55671 86.8733
lradius 34.0829
lwrist -6.4594
lhand -16.2856 25.0709
lfingers 7.12502
lthumb 9.9246 54.817
rfemur -4.72822 -11.7719 24.9627
rtibia 21.6402
rfoot -14.2797 -21.7044
rtoes 25.0642
lfemur -7.20901 13.4574 -16.6004
ltibia 27.4074
lfoot -11.0399 16.6269
ltoes -1.37187
742
root -0.0653326 18.2153 1.63034 -3.46276 -56.8437 -356.89
lowerback 11.9447 1.16254 -0.0800967
upperback 0.0518197 1.55113 0.46278
thorax -6.6688 0.762342 0.262181
lowerneck -21.6989 -5.68321 -12.6555
upperneck 29.2928 -6.63768 8.42354
head 14.4611 -3.22429 4.32186
rclavicle -3.27249e-014 2.78299e-015
rhumerus -34.8189 -7.73348 -82.5755
rradius 29.2255
rwrist 8.12464
rhand -14.4316 8.57792
rfingers 7.12502
rthumb 11.7129 -21.0746
lclavicle -3.27249e-014 2.78299e-015
lhumerus -32.2934 2.44151 86.8909
lradius 34.0326
lwrist -6.60559
lhand -17.3082 25.2822
lfingers 7.12502
lthumb 8.93799 55.0729
rfemur -4.83928 -12.1659 24.9172
rtibia 21.715
rfoot -14.7198 -22.0751
rtoes 26.0641
lfemur -7.19812 13.707 -16.5663
ltibia 27.367
lfoot -10.4083 16.8511
ltoes -2.8174
743
root -0.0682612 18.2164 1.62908 -3.52467 -56.1216 -356.656
lowerback 11.7889 1.19259 -0.293573
upperback 0.0104105 1.56263 0.45685
thorax -6.63066 0.775571 0.376891
lowerneck -21.7937 -5.6107 -12.7281
upperneck 29.439 -6.46415 8.33383
head 14.5221 -3.17011 4.33578
rclavicle 4.17199e-014 -1.59028e-015
rhumerus -34.8991 -7.48857 -82.5419
rradius 29.3405
rwrist 7.94269
rhand -14.5793 8.25911
rfingers 7.12502
rthumb 11.5705 -21.4015
lclavicle 4.17199e-014 -1.59028e-015
lhumerus -32.3498 2.48962 86.8291
lradius 34.0726
lwrist -6.33057
lhand -17.0523 25.771
lfingers 7.12502
lthumb 9.18491 55.5509
rfemur -5.04135 -12.2589 24.7954
rtibia 21.8
rfoot -14.8269 -22.6477
rtoes 26.2507
lfemur -7.22873 14.0332 -16.6987
ltibia 27.2725
lfoot -9.97004 17.091
ltoes -4.58776
744
root -0.0638998 18.2183 1.61662 -3.49337 -55.1898 -356.582
lowerback 11.8363 1.19229 -0.487747
upperback -0.0429472 1.53832 0.485391
thorax -6.71993 0.770975 0.51903
lowerneck -21.8501 -5.72108 -12.8293
upperneck 29.5254 -6.61838 8.42896
head 14.604 -3.23426 4.3659
rclavicle -1.45163e-013 2.78299e-015
rhumerus -34.9012 -7.64355 -82.3368
rradius 29.3403
rwrist 8.01458
rhand -14.7009 8.00802
rfingers 7.12502
rthumb 11.4532 -21.6591
lclavicle -1.45163e-013 2.78299e-015
lhumerus -32.3115 2.5864 86.7404
lradius 34.1458
lwrist -5.68087
lhand -15.857 26.1597
lfingers 7.12502
lthumb 10.3381 55.8856
rfemur -5.1681 -12.1894 24.7935
rtibia 21.882
rfoot -14.8228 -23.3531
rtoes 26.3408
lfemur -7.28414 14.338 -16.7246
ltibia 27.1851
lfoot -9.55947 17.1132
ltoes -6.34888
745
root -0.0655634 18.2238 1.62994 -3.66572 -54.4439 -356.477
lowerback 11.735 1.24593 -0.409643
upperback 0.0648779 1.61303 0.388246
thorax -6.54425 0.802846 0.363192
lowerneck -22.0269 -5.82 -12.8245
upperneck 29.6104 -6.79973 8.58517
head 14.7136 -3.28597 4.39776
rclavicle 4.71617e-014 0
rhumerus -34.8059 -7.96904 -82.2341
rradius 29.2647
rwrist 8.2242
rhand -14.7057 7.77212
rfingers 7.12502
rthumb 11.4485 -21.8953
lclavicle 4.71617e-014 0
lhumerus -32.2353 2.27764 86.678
lradius 34.1413
lwrist -5.58939
lhand -15.7553 26.1766
lfingers 7.12502
lthumb 10.4362 55.8976
rfemur -5.03758 -12.2611 24.6165
rtibia 21.9576
rfoot -14.7355 -23.844
rtoes 25.9366
lfemur -7.01955 14.4057 -16.809
ltibia 27.0842
lfoot -9.44293 17.4141
ltoes -6.26784
746
root -0.0614386 18.2244 1.6351 -3.67158 -53.4544 -356.476
lowerback 11.6184 1.17045 -0.295899
upperback 0.157967 1.52345 0.326101
thorax -6.37402 0.754253 0.25269
lowerneck -22.1973 -5.83355 -12.765
upperneck 29.6548 -6.83178 8.62721
head 14.7747 -3.28194 4.40012
rclavicle -4.69132e-014 7.55382e-015
rhumerus -34.627 -8.01972 -82.2241
rradius 29.1456
rwrist 8.35203
rhand -14.6307 8.16999
rfingers 7.12502
rthumb 11.5209 -21.4934
lclavicle -4.69132e-014 7.55382e-015
lhumerus -32.112 2.15108 86.5889
lradius 34.0384
lwrist -5.7786
lhand -16.189 25.7338
lfingers 7.12502
lthumb 10.0178 55.4754
rfemur -5.06973 -12.6978 24.5534
rtibia 22.0172
rfoot -14.9182 -24.4009
rtoes 26.1838
lfemur -6.94866 14.5172 -16.8525
ltibia 27.011
lfoot -9.07769 17.4309
ltoes -7.7177
